<?xml version="1.0" encoding="UTF-8"?>
<svg id="Layer_1" xmlns="http://www.w3.org/2000/svg" version="1.1" viewBox="0 0 856 153">
  <!-- Generator: Adobe Illustrator 29.1.0, SVG Export Plug-In . SVG Version: 2.1.0 Build 142)  -->
  <defs>
    <style>
      .st0 {
        fill: #f8f8f8;
      }
    </style>
  </defs>
  <path class="st0" d="M323.6,86c0,11.1-9,18.2-23,18.2s-14.9-1.8-21.1-4.7v-10c4.1,3,11.7,6.2,20.9,6.1,8.2,0,13.1-3.6,13.1-9.5s-4.2-8.4-12.3-9.6c-3.7-.6-7.9-.8-13.2-.6v-7.1c-.1,0,17.2-15.6,17.2-15.6h-25.7v-8.4h42v6.7l-18.6,16.7h1.1c9.8,1,19.6,6.8,19.6,17.8h0Z"/>
  <polygon class="st0" points="373.6 44.9 373.6 51.7 350.6 103.3 339.7 103.3 362.1 53.3 331.5 53.3 331.5 44.9 373.6 44.9"/>
  <path class="st0" d="M431.2,45.1h-23.8v58.3h10v-17.3h13.8c15.2,0,24.6-7.9,24.6-20.5s-9.4-20.5-24.6-20.5h0ZM430.7,77.8h-13.3v-24.4h13.3c9.7,0,15.1,4.3,15.1,12.2s-5.4,12.2-15.1,12.2Z"/>
  <polygon class="st0" points="512.6 103.3 502.2 103.3 481.4 57.1 460.7 103.3 450.2 103.3 476.3 45 486.5 45 512.6 103.3"/>
  <path class="st0" d="M554.7,84.2l.6-.2c7.9-3.1,12.3-9.5,12.3-18.2,0-12.6-9.4-20.5-24.6-20.5h-23.8v58.1h10v-17.2h13.8c.8,0,1.2,0,1.2,0h.3l12,17.2h11.7l-13.4-19.1h0ZM542.4,78.1h-13.3v-24.5h13.3c9.7,0,15.1,4.3,15.1,12.2s-5.4,12.3-15.1,12.3h0Z"/>
  <path class="st0" d="M778.9,84.3l.6-.2c7.9-3.1,12.3-9.5,12.3-18.2,0-12.6-9.4-20.5-24.6-20.5h-23.8v58.1h10v-17.2h13.8c.8,0,1.2,0,1.2,0h.3l12,17.2h11.7l-13.4-19.1h0ZM766.6,78.2h-13.3v-24.5h13.3c9.7,0,15.1,4.3,15.1,12.2s-5.4,12.3-15.1,12.3h0Z"/>
  <polygon class="st0" points="678 45.3 677.9 103.5 669.9 103.5 636.4 62.5 636.3 103.4 626.4 103.4 626.5 45.2 634.8 45.3 668.1 86.1 668.1 45.3 678 45.3"/>
  <polygon class="st0" points="700.4 53.9 700.3 69.5 721.6 69.5 721.6 78.1 700.3 78.1 700.4 93.9 732.3 93.9 732.3 103.4 690.5 103.4 690.5 45.4 732.4 45.3 732.4 53.8 700.4 53.9"/>
  <path class="st0" d="M846,87.2c0,10.4-9.2,17.1-23.4,17.1s-16.9-2-21.5-5.8v-9.1c5.8,4.6,15,6.7,21.5,6.7s13.6-3,13.6-8.2-7-7.6-14.4-9.3c-9.7-2.3-20.7-4.9-20.7-17s2.5-10.1,6.7-12.7c4.9-3.1,10.8-4.7,16.7-4.6,5.7.1,11.3,1.9,16.4,5.1v9.5c-1.3-1.2-2.8-2.3-4.3-3.1-5.3-3.1-11.9-4-17.9-2.6-4.8,1.1-7.7,4.1-7.7,7.9,0,5.8,7,7.5,14.3,9.2,9.7,2.3,20.7,4.9,20.7,16.8h0Z"/>
  <polygon class="st0" points="599.8 57.6 599.8 103.4 589.8 103.4 589.8 61.9 599.8 57.6"/>
  <rect class="st0" x="570.3" y="45.1" width="49.1" height="8.5"/>
  <polygon class="st0" points="159.8 4.3 111.1 44.8 111.1 4.3 159.8 4.3"/>
  <polygon class="st0" points="54.7 4.3 6.1 44.8 6.1 4.3 54.7 4.3"/>
  <polygon class="st0" points="204.4 4.3 139.8 144.4 105.8 144.4 170.4 4.3 204.4 4.3"/>
  <polygon class="st0" points="258 4.3 218.7 90 178.3 103.6 224 4.3 258 4.3"/>
  <path class="st0" d="M101,92.9c0,16.2-8,31.6-21.3,41.3-13.9,10-34,13.3-55.2,8.9-6.4-1.3-12.5-3.6-18.4-6.9v-31.3c9,7.6,21.2,12.4,31.2,12.4h0c14.8,0,26.9-9.5,29.4-23.1,1.1-5.8.5-11.2-1.7-16.1-1.1-2.3-2.4-4.4-4.1-6.3-1.9-2.2-4.2-4.1-6.7-5.7-7.6-4.6-14.1-6.1-21.5-6.9-2.4-.3-4.2-.4-5.5-.5L64.7,4.3h35.8l-29.4,41.8.5.2c8.6,4.1,16,10.6,21.2,18.7,5.3,8.3,8.2,17.9,8.2,27.8h0Z"/>
</svg>